<?xml version="1.0" encoding="utf-8"?>
<!-- Generator: Adobe Illustrator 25.0.1, SVG Export Plug-In . SVG Version: 6.00 Build 0)  -->
<svg version="1.1" id="Layer_1" xmlns="http://www.w3.org/2000/svg" xmlns:xlink="http://www.w3.org/1999/xlink" x="0px" y="0px"
	 viewBox="0 0 496 496" style="enable-background:new 0 0 496 496;" xml:space="preserve">
<style type="text/css">
	.st0{fill:#3B5251;}
	.st1{fill:#2060BC;}
	.st2{fill:#FFFFFF;}
</style>
<g>
	<path class="st0" d="M126.4,194.2v-105c0-11.9,9.4-21.6,20.9-21.6h264.8c1.5,0,2.9,0.2,4.3,0.5c8-6,15.4-12.1,22.4-18.3
		c-7.6-5.5-16.7-8.7-26.7-8.7H147.3c-25.7,0-46.6,21.6-46.6,48.2v111.8C109.4,198.8,118,196.5,126.4,194.2z"/>
	<path class="st0" d="M433,142.1v213.2l-96.1,0.5H233.2c-12.8,9.4-25.7,18.3-38.7,26.5h151.4h112.8v-280
		C451.3,114.4,442.7,127.8,433,142.1z"/>
	<path class="st1" d="M431.9,89.5c-6,5.2-12.4,10.3-18.9,15.3c-82.7,62.1-204.1,100.6-286.2,121.9c-8.5,2.2-16.6,4.2-24.2,6.1V286
		v96.3h57.9c13.8-7.6,27.1-15.7,40-24.2c100.3-66.4,172.9-158.6,215.2-222.4c8.6-12.9,15.9-24.7,22-34.8
		c14.2-23.7,21.5-38.5,21.5-38.5C451,71.9,441.8,80.9,431.9,89.5z"/>
	<polygon class="st0" points="452.2,397.7 92.2,397.7 36.8,454.9 396.8,454.9 	"/>
</g>
<path class="st2" d="M227.4,296.6c3.4-0.9,6.9-1.9,10.3-2.8c0.2-2,0.3-4,0.3-6c0-2-0.1-4-0.3-6c-3.4-0.9-6.9-1.9-10.3-2.8
	c-1.3-7.3-4.2-14.1-8.3-20c1.8-3.1,3.5-6.2,5.3-9.3c-2.5-3.1-5.4-6-8.5-8.5c-3.1,1.8-6.2,3.5-9.3,5.3c-5.9-4.1-12.6-7-20-8.3
	c-0.9-3.4-1.9-6.9-2.8-10.3c-2-0.2-4-0.3-6-0.3c-2,0-4,0.1-6,0.3c-0.9,3.4-1.9,6.9-2.8,10.3c-7.3,1.3-14.1,4.2-20,8.3
	c-3.1-1.8-6.2-3.5-9.3-5.3c-3.1,2.5-6,5.4-8.5,8.5c1.8,3.1,3.5,6.2,5.3,9.3c-4.1,5.9-7,12.6-8.3,20c-3.4,0.9-6.9,1.9-10.3,2.8
	c-0.2,2-0.3,4-0.3,6c0,2,0.1,4,0.3,6c3.4,0.9,6.9,1.9,10.3,2.8c1.3,7.3,4.2,14.1,8.3,20c-1.8,3.1-3.5,6.2-5.3,9.3
	c2.5,3.1,5.4,6,8.5,8.5c3.1-1.8,6.2-3.5,9.3-5.3c5.9,4.1,12.6,7,20,8.3c0.9,3.4,1.9,6.9,2.8,10.3c2,0.2,4,0.3,6,0.3c2,0,4-0.1,6-0.3
	c0.9-3.4,1.9-6.9,2.8-10.3c7.3-1.3,14.1-4.2,20-8.3c3.1,1.8,6.2,3.5,9.3,5.3c3.1-2.5,6-5.4,8.5-8.5c-1.8-3.1-3.5-6.2-5.3-9.3
	C223.2,310.7,226.1,303.9,227.4,296.6z M217.5,290.7c-1.9,13.3-12.8,6.5-26.6-1.5c1.6-7.2-1.6-14.9-8.3-18.8
	c-6.1-3.5-13.3-2.9-18.7,0.8l14,8.1v8.5l-7.4,4.3l-14-8.1c-0.6,6.5,2.6,13.1,8.7,16.6c6.7,3.9,15,2.8,20.4-2.2
	c13.9,8,25.2,14,14.6,22.3c-6.4,4.3-14,6.8-22.3,6.8c-22,0-39.8-17.8-39.8-39.8s17.8-39.8,39.8-39.8c22,0,39.8,17.8,39.8,39.8
	C217.6,288.7,217.6,289.7,217.5,290.7z"/>
</svg>
